<?xml version="1.0" encoding="UTF-8"?>
<svg xmlns="http://www.w3.org/2000/svg" xmlns:xlink="http://www.w3.org/1999/xlink" viewBox="0 0 30 30" width="30px" height="30px">
<g id="surface24215509">
<path style=" stroke:none;fill-rule:nonzero;fill:rgb(100%,100%,100%);fill-opacity:1;" d="M 3.164062 21.972656 L 3.085938 21.835938 C 1.882812 19.75 1.242188 17.359375 1.246094 14.933594 C 1.246094 7.320312 7.445312 1.125 15.058594 1.125 C 18.753906 1.125 22.222656 2.5625 24.832031 5.175781 C 27.4375 7.785156 28.875 11.253906 28.875 14.945312 C 28.871094 22.558594 22.675781 28.753906 15.058594 28.753906 C 12.75 28.753906 10.464844 28.171875 8.453125 27.074219 L 8.320312 27.003906 L 1.28125 28.847656 Z M 3.164062 21.972656 "/>
<path style=" stroke:none;fill-rule:nonzero;fill:rgb(58.431375%,64.705884%,65.098041%);fill-opacity:1;" d="M 15.058594 1.5 C 18.652344 1.5 22.027344 2.898438 24.566406 5.441406 C 27.101562 7.980469 28.5 11.355469 28.5 14.945312 C 28.496094 22.355469 22.46875 28.378906 15.054688 28.378906 C 12.8125 28.378906 10.589844 27.816406 8.632812 26.746094 L 8.371094 26.601562 L 8.082031 26.679688 L 1.816406 28.320312 L 3.484375 22.222656 L 3.570312 21.921875 L 3.414062 21.648438 C 2.238281 19.617188 1.617188 17.292969 1.621094 14.933594 C 1.621094 7.527344 7.652344 1.5 15.058594 1.5 M 15.058594 0.75 C 7.238281 0.75 0.871094 7.113281 0.867188 14.933594 C 0.867188 17.433594 1.519531 19.875 2.761719 22.023438 L 0.75 29.375 L 8.273438 27.402344 C 10.34375 28.535156 12.679688 29.128906 15.054688 29.128906 L 15.058594 29.128906 C 22.878906 29.128906 29.246094 22.765625 29.25 14.945312 C 29.25 11.15625 27.777344 7.589844 25.097656 4.910156 C 22.417969 2.226562 18.855469 0.75 15.058594 0.75 Z M 15.058594 0.75 "/>
<path style=" stroke:none;fill-rule:nonzero;fill:rgb(18.039216%,80.000001%,44.313726%);fill-opacity:1;" d="M 14.996094 26.25 C 13.117188 26.25 11.257812 25.777344 9.621094 24.882812 L 8.546875 24.296875 L 7.363281 24.605469 L 4.933594 25.246094 L 5.554688 22.972656 L 5.894531 21.730469 L 5.25 20.613281 C 4.269531 18.914062 3.75 16.96875 3.75 14.996094 C 3.753906 8.792969 8.800781 3.75 15 3.75 C 18.007812 3.75 20.832031 4.921875 22.957031 7.046875 C 25.082031 9.171875 26.25 12 26.25 15.003906 C 26.246094 21.203125 21.199219 26.25 14.996094 26.25 Z M 14.996094 26.25 "/>
<path style=" stroke:none;fill-rule:nonzero;fill:rgb(100%,100%,100%);fill-opacity:1;" d="M 21.210938 17.765625 C 20.871094 17.597656 19.214844 16.78125 18.90625 16.667969 C 18.597656 16.554688 18.371094 16.5 18.148438 16.835938 C 17.921875 17.175781 17.277344 17.933594 17.082031 18.160156 C 16.882812 18.382812 16.6875 18.410156 16.351562 18.242188 C 16.011719 18.074219 14.925781 17.71875 13.640625 16.570312 C 12.636719 15.675781 11.960938 14.574219 11.761719 14.234375 C 11.566406 13.898438 11.742188 13.714844 11.910156 13.546875 C 12.0625 13.394531 12.25 13.152344 12.417969 12.957031 C 12.585938 12.761719 12.640625 12.621094 12.753906 12.394531 C 12.867188 12.167969 12.808594 11.972656 12.726562 11.804688 C 12.640625 11.636719 11.964844 9.976562 11.683594 9.300781 C 11.410156 8.644531 11.132812 8.734375 10.925781 8.722656 C 10.730469 8.714844 10.503906 8.710938 10.28125 8.710938 C 10.054688 8.710938 9.691406 8.796875 9.382812 9.136719 C 9.074219 9.472656 8.203125 10.289062 8.203125 11.945312 C 8.203125 13.605469 9.410156 15.210938 9.578125 15.433594 C 9.746094 15.660156 11.953125 19.0625 15.339844 20.523438 C 16.140625 20.871094 16.773438 21.078125 17.257812 21.234375 C 18.066406 21.488281 18.800781 21.453125 19.382812 21.367188 C 20.03125 21.269531 21.378906 20.550781 21.660156 19.765625 C 21.941406 18.976562 21.941406 18.300781 21.855469 18.164062 C 21.773438 18.019531 21.546875 17.933594 21.210938 17.765625 Z M 21.210938 17.765625 "/>
</g>
</svg>
